<svg preserveAspectRatio="none" width="100%" height="100%" overflow="visible" style="display: block;" viewBox="0 0 20 20" fill="none" xmlns="http://www.w3.org/2000/svg">
<g id="Frame" clip-path="url(#clip0_0_90)">
<path id="Vector" d="M19.9895 10.1871C19.9895 9.3677 19.9214 8.76977 19.7742 8.14969H10.1992V11.848H15.8195C15.7062 12.7671 15.0943 14.1512 13.7346 15.0813L13.7155 15.2051L16.7429 17.4969L16.9527 17.5174C18.8789 15.7789 19.9895 13.2211 19.9895 10.1871" fill="var(--fill-0, #4285F4)"/>
<path id="Vector_2" d="M10.1992 19.9313C12.9527 19.9313 15.2643 19.0454 16.9527 17.5174L13.7346 15.0813C12.8734 15.6682 11.7176 16.0779 10.1992 16.0779C7.50239 16.0779 5.21348 14.3395 4.39755 11.9366L4.27795 11.9466L1.12999 14.3273L1.08882 14.4391C2.76584 17.6945 6.21056 19.9313 10.1992 19.9313Z" fill="var(--fill-0, #34A853)"/>
<path id="Vector_3" d="M4.39761 11.9366C4.18232 11.3166 4.05773 10.6521 4.05773 9.96564C4.05773 9.27908 4.18232 8.61472 4.38629 7.99465L4.38058 7.86259L1.19318 5.44365L1.08889 5.49213C0.397712 6.84304 0.00111244 8.36007 0.00111244 9.96564C0.00111244 11.5712 0.397712 13.0882 1.08889 14.4391L4.39761 11.9366" fill="var(--fill-0, #FBBC05)"/>
<path id="Vector_4" d="M10.1992 3.85338C12.1142 3.85338 13.4059 4.6617 14.1425 5.33719L17.0206 2.59109C15.253 0.985514 12.9527 1.83105e-05 10.1992 1.83105e-05C6.21056 1.83105e-05 2.76584 2.23674 1.08882 5.49216L4.38622 7.99467C5.21347 5.59185 7.50238 3.85338 10.1992 3.85338" fill="var(--fill-0, #EB4335)"/>
</g>
<defs>
<clipPath id="clip0_0_90">
<rect width="20" height="20" fill="white"/>
</clipPath>
</defs>
</svg>
