<svg preserveAspectRatio="none" width="100%" height="100%" overflow="visible" style="display: block;" viewBox="0 0 90 90" fill="none" xmlns="http://www.w3.org/2000/svg">
<g id="Vector">
<path fill-rule="evenodd" clip-rule="evenodd" d="M46.6133 0C70.5746 0 90 19.7393 90 44.088C90 68.4366 70.5746 88.1759 46.6133 88.1759C22.652 88.1759 3.22515 68.4381 3.22515 44.088C3.22515 19.7393 22.6505 0 46.6133 0ZM62.0209 58.0311C63.2028 59.1526 64.5425 60.1667 65.9513 60.849C67.4137 61.5577 69.3774 62.0827 70.8276 61.0577C71.0131 60.9268 71.1817 60.7757 71.3319 60.6044C72.6088 59.1588 72.2317 56.8815 71.6554 55.2163C70.8644 52.9358 69.3882 50.7145 67.8031 48.9278C66.3468 47.2859 64.5042 45.6753 62.5283 44.7188C62.2661 44.5911 61.9856 44.4696 61.6974 44.3621C63.957 42.6471 65.7168 40.5535 66.7975 38.2169H68.1434C69.5154 38.2169 70.639 37.0751 70.639 35.681V29.9034C70.639 28.5404 69.566 27.4189 68.2354 27.369V21.6569C69.1812 21.4482 69.8879 20.593 69.8879 19.5711C69.8879 18.3919 68.9467 17.4355 67.7878 17.4355C66.6273 17.4355 65.6877 18.3919 65.6877 19.5711C65.6877 20.5945 66.3959 21.4482 67.3402 21.6569V27.3659H66.796C64.5395 22.4918 59.3306 18.6723 52.7972 17.1473C52.4247 15.532 50.9929 14.3216 49.2929 14.3216H43.6073C41.9072 14.3216 40.4755 15.532 40.103 17.1473C33.5696 18.6723 28.3607 22.4918 26.1042 27.3659H25.56V21.6569C26.5058 21.4482 27.2125 20.593 27.2125 19.5711C27.2125 18.3919 26.2713 17.4355 25.1109 17.4355C23.9504 17.4355 23.0107 18.3919 23.0107 19.5711C23.0107 20.5945 23.719 21.4482 24.6632 21.6569V27.369C23.3327 27.4189 22.2596 28.5389 22.2596 29.9034V35.681C22.2596 37.0751 23.3832 38.2169 24.7552 38.2169H26.1011C27.2003 40.5909 28.9999 42.7141 31.3116 44.4447C31.097 44.5304 30.89 44.6238 30.6923 44.7188C28.7163 45.6768 26.8753 47.2859 25.4174 48.9278C23.8324 50.7145 22.3562 52.9358 21.5652 55.2163C20.9873 56.8815 20.6102 59.1588 21.8886 60.6044C22.0389 60.7742 22.2075 60.9268 22.393 61.0577C23.8447 62.0811 25.8068 61.5577 27.2692 60.849C28.5738 60.2165 29.8216 59.299 30.936 58.2756C31.2779 59.6666 31.7669 61.0219 32.3724 62.3132C33.7873 65.3289 35.9027 68.1453 38.4382 70.2762C40.6533 72.1377 43.4632 73.6861 46.3849 73.8496C46.4279 73.8527 46.4631 73.8527 46.506 73.8496C49.4278 73.6861 52.2361 72.1393 54.4528 70.2762C56.9898 68.1437 59.1037 65.3289 60.5186 62.3132C61.1655 60.9471 61.6775 59.5078 62.0209 58.0311ZM31.6473 38.65V28.9875C31.6473 25.8331 41.9808 25.154 46.6133 25.154C51.2459 25.154 61.5794 25.8331 61.5794 28.9875V38.65C61.5778 45.8793 31.6473 45.8793 31.6473 38.65Z" fill="#582C77"/>
<path fill-rule="evenodd" clip-rule="evenodd" d="M41.098 32.955C41.9886 32.955 42.7091 33.6887 42.7091 34.5922C42.7091 35.4972 41.9871 36.2293 41.098 36.2293C40.2073 36.2293 39.4868 35.4956 39.4868 34.5922C39.4868 33.6887 40.2073 32.955 41.098 32.955Z" fill="white"/>
<path fill-rule="evenodd" clip-rule="evenodd" d="M52.1273 32.955C53.0179 32.955 53.7384 33.6887 53.7384 34.5922C53.7384 35.4972 53.0164 36.2293 52.1273 36.2293C51.2367 36.2293 50.5162 35.4956 50.5162 34.5922C50.5162 33.6887 51.2382 32.955 52.1273 32.955Z" fill="white"/>
<path fill-rule="evenodd" clip-rule="evenodd" d="M46.6135 32.955C47.5042 32.955 48.2247 33.6887 48.2247 34.5922C48.2247 35.4972 47.5026 36.2293 46.6135 36.2293C45.7229 36.2293 45.0024 35.4956 45.0024 34.5922C45.0009 33.6887 45.7229 32.955 46.6135 32.955Z" fill="white"/>
<path fill-rule="evenodd" clip-rule="evenodd" d="M14.1352 54.8767L0 90L60.7165 80.5166L35.8201 74.398L14.1352 54.8767Z" fill="var(--fill-0, #582C77)"/>
</g>
</svg>
