<?xml version="1.0" encoding="UTF-8"?>
<svg id="Layer_1" data-name="Layer 1" xmlns="http://www.w3.org/2000/svg" viewBox="0 0 439.2 439.2">
  <defs>
    <style>
      .cls-1 {
        fill: #bcd431;
      }

      .cls-2 {
        fill: #562b77;
      }
    </style>
  </defs>
  <circle class="cls-2" cx="219.6" cy="219.6" r="216"/>
  <circle class="cls-1" cx="219.6" cy="219.6" r="207"/>
  <circle class="cls-2" cx="219.6" cy="219.6" r="198"/>
  <g>
    <g>
      <path class="cls-1" d="M246.18,333.75h-70.77c-.76,0-1.44-.48-1.7-1.19l-65.12-179.4c-.43-1.18.45-2.43,1.7-2.42l69.97.14c.76,0,1.43.47,1.69,1.18l65.93,179.26c.43,1.18-.44,2.43-1.7,2.43Z"/>
      <circle class="cls-1" cx="103.98" cy="293.78" r="39.98"/>
    </g>
    <g>
      <circle class="cls-1" cx="305.83" cy="101.82" r="38.1"/>
      <path class="cls-1" d="M340.9,153.06v178.46c0,1.24-1,2.24-2.24,2.24h-65.66c-1.24,0-2.24-1-2.24-2.24v-147.82c0-.87.5-1.66,1.29-2.03l65.66-30.64c1.48-.69,3.18.39,3.18,2.03Z"/>
    </g>
  </g>
</svg>