<?xml version="1.0" encoding="UTF-8"?>
<svg id="Layer_1" data-name="Layer 1" xmlns="http://www.w3.org/2000/svg" viewBox="0 0 77.14 77.14">
  <defs>
    <style>
      .cls-1 {
        fill: #bcd431;
      }
      .cls-2 {
        fill: #0f0f11;
      }
    </style>
  </defs>
  <rect class="cls-2" width="77.14" height="77.14" rx="17.97" ry="17.97"/>
  <g>
    <path class="cls-1" d="M62.83,48.46c-.12,7.05-10.6,7.05-10.72,0,.12-7.05,10.6-7.04,10.72,0Z"/>
    <path class="cls-1" d="M38.53,42.87l13.76-12.79c.06-.06.1-.14.1-.23v-.49c0-.17-.14-.31-.31-.31h-14.25c-.35,0-.63.28-.63.63v12.21c0,.09-.04.18-.11.24l-8.34,7c-.2.17-.52.03-.52-.24V12.08c0-.17-.14-.31-.31-.31h-1.79s-.09.01-.13.03l-11.51,5.37c-.11.05-.18.16-.18.28v47.61c0,.17.14.31.31.31h13.29c.17,0,.31-.14.31-.31v-11.48c0-.29.37-.43.55-.2l9.97,11.88c.06.07.15.11.24.11h16.7c.17,0,.31-.14.31-.31v-.78c0-.07-.03-.15-.07-.2l-17.43-20.78c-.11-.13-.1-.32.03-.43Z"/>
  </g>
</svg>